/* XPM */
static char *war1gus[] = {
/* columns rows colors chars-per-pixel */
"32 32 190 2 ",
"   c #080603",
".  c #050402",
"X  c #110D05",
"o  c #1E1708",
"O  c #191307",
"+  c #231B09",
"@  c #281F0A",
"#  c #2D220B",
"$  c #31260C",
"%  c #36290C",
"&  c #3B2C0C",
"*  c #3F300E",
"=  c #412F0B",
"-  c #44320D",
";  c #47380C",
":  c #4F3F0E",
">  c #4B340B",
",  c #50380E",
"<  c #433310",
"1  c #483712",
"2  c #4C3A12",
"3  c #523E13",
"4  c #594A0C",
"5  c #554114",
"6  c #5C4515",
"7  c #5F4817",
"8  c #5D4618",
"9  c #5F4818",
"0  c #65440A",
"q  c #63510F",
"w  c #6D590D",
"e  c #634B16",
"r  c #694D14",
"t  c #664E18",
"y  c #684F19",
"u  c #675016",
"i  c #6D5216",
"p  c #6A5119",
"a  c #715316",
"s  c #755C15",
"d  c #7B5A17",
"f  c #72561A",
"g  c #75591A",
"h  c #7B5D1B",
"j  c #7B6C0A",
"k  c #7F6815",
"l  c #7C611C",
"z  c #8D5B0F",
"x  c #87550A",
"c  c #975708",
"v  c #875D13",
"b  c #8F5F13",
"n  c #865F18",
"m  c #A25705",
"M  c #A45D05",
"N  c #A25F09",
"B  c #AD5F04",
"V  c #9F6106",
"C  c #86760F",
"Z  c #8F750D",
"A  c #8E7D06",
"S  c #957C0B",
"D  c #826C15",
"F  c #84641E",
"G  c #88671E",
"H  c #85691B",
"J  c #8B6A1E",
"K  c #946414",
"L  c #926D1D",
"P  c #9F6A15",
"I  c #937914",
"U  c #95721D",
"Y  c #9A731F",
"T  c #A36305",
"R  c #A0600A",
"E  c #AD6708",
"W  c #A3690E",
"Q  c #A96705",
"!  c #B46404",
"~  c #B96704",
"^  c #BB6905",
"/  c #B16508",
"(  c #B96E0C",
")  c #AD740B",
"_  c #BD7505",
"`  c #AC6D10",
"'  c #A77013",
"]  c #A27D1E",
"[  c #866620",
"{  c #876820",
"}  c #8D6C21",
"|  c #916F21",
" . c #957222",
".. c #9A7623",
"X. c #9E7925",
"o. c #9D7728",
"O. c #9E7828",
"+. c #A37D26",
"@. c #A57E28",
"#. c #A87F29",
"$. c #C46C03",
"%. c #CB6C03",
"&. c #D36F02",
"*. c #C57006",
"=. c #CA7302",
"-. c #C67903",
";. c #D67603",
":. c #DC7502",
">. c #DB7C02",
",. c #E47D02",
"<. c #9E8606",
"1. c #938908",
"2. c #9F8A0A",
"3. c #9D860D",
"4. c #998312",
"5. c #A88908",
"6. c #A18103",
"7. c #BE8904",
"8. c #AB960D",
"9. c #AE980B",
"0. c #AD9306",
"q. c #B39708",
"w. c #B39A0E",
"e. c #A58A19",
"r. c #ADA30A",
"t. c #B8A105",
"y. c #B7A60A",
"u. c #A78126",
"i. c #AF8923",
"p. c #A78028",
"a. c #AC8329",
"s. c #B0872B",
"d. c #B58A2C",
"f. c #BA8E2E",
"g. c #BD902F",
"h. c #BD9030",
"j. c #C18004",
"k. c #CD8702",
"l. c #D58302",
"z. c #DC8102",
"x. c #D98A02",
"c. c #CD910D",
"v. c #DA9102",
"b. c #E28402",
"n. c #E38C02",
"m. c #E98A02",
"M. c #E59402",
"N. c #E49802",
"B. c #EA9A02",
"V. c #CDAF03",
"C. c #C4A605",
"Z. c #D7A902",
"A. c #DAA302",
"S. c #C2B30A",
"D. c #C8B008",
"F. c #C5B809",
"G. c #C7BA04",
"H. c #D3B40D",
"J. c #EBA402",
"K. c #EDAC02",
"L. c #F0AE02",
"P. c #ECB302",
"I. c #ECB902",
"U. c #F1B402",
"Y. c #F1BC02",
"T. c #C49532",
"R. c #C7C103",
"E. c #CBC305",
"W. c #DAC603",
"Q. c #D8CD06",
"!. c #DCD704",
"~. c #E1CB03",
"^. c #E8CF02",
"/. c #E0C203",
"(. c #F3C502",
"). c #F4CE02",
"_. c #ECD402",
"`. c #E3D703",
"'. c #F3D302",
"]. c #F8D702",
"[. c #F2DA02",
"{. c #F9DC02",
"}. c #EDE102",
"|. c #F6E102",
" X c #F2EB02",
".X c #FAEA02",
"XX c #F9E301",
"oX c #FAF202",
"OX c #FEF902",
"+X c None",
/* pixels */
"+X+X+X+X+X+X+X+X+X+X+X+X+X+X+X+X2 9 y h J  .O.@.u.u.[ y +X+X+X+X",
"+X+X+X+X+X+X+X+X+X3 +X+XO.o.a.f.d.T.T.T.T.T.T.T.T.T.f.F 3 +X+X+X",
"+X+X+X+X[ [  .@.@.O.@.a.f.f.f.d.f.f.h.f.d.d.d.f.f.f.d.@.f +X+X+X",
"+X+X5 ..h.h.T.h.d.@.+.o.O.X.X.X.@.@.@.@.+.+.@.u.a.a.O...J e +X+X",
"+X+X5 a.d.a.a.@.+. . . . .Y ..+.+.@.+.X.X.Y +.u.i.] H L h 5 +X+X",
"+X+X1 O.@.+.O.o. .| | ..X.+.@.@.@.@.u.O.} y.Q.H.c.W G L d 6 +X+X",
"+X+X<  . .I I J H H  .p.+...J [ ..a.a.X.l E..XB.;.W L L g 6 +X+X",
"+X+X& F k y.W.~.G.3. .a.a.U C Z K X.s.p.k !.).,.=.K Y ..F 6 +X+X",
"+X+X# 9 q ~.oX).x.T h .. .D R.I./ L p.u.8. XI.,.`  .U  .F 6 +X+X",
"+X+X+ < ; W.OXI.&.m r y 7 1. XK.%.K } U S.oXK.;.v F h a 6 1 +X+X",
"+X+Xo % # 1..X(.:.M , = 4 R.oXK.:.M e u y.oXB.~ 6 3 ; % $ % +X+X",
"+X+X< 2 2 6 ^.'.z.B 6 9 j Q..XJ.:.^ v l E.XXn.N F [ f 6 2 2 +X+X",
"+X+Xf O.u. .D.].M.! F  .4.}.K.B.,.=.' e.`.].>.P d.f.d.#.@.J +X+X",
"+X+Xy d.g.o.w.|.K.$.z L r.'.M.I.N.=.) S. XL.( +.d.s.+.u.a.| +X+X",
"+X+X5 u.s.+.4.[.(.>.c s R.I.v._.I.x.-.!.|.x.b ..+. .J  .+.F +X+X",
"+X+X2 p.d.a.U ~.].n.m j [.B.k.W._.v.l.[.)._ F ..J F F U ..f +X+X",
"+X+X< X.s.a.} 9.].J.$.6._.M.Q t.[.J.b.}.I.E } X.J L L J F 6 +X+X",
"+X+X% } a.a.X.C _.U.:.Z.I.-.v S `.P.b._.B.c { } a i r 6 6 > +X+X",
"+X+X# y F  . .l /.(.n.A.x.V a w ~.(.N.P.b.x e e 3 - & & * * +X+X",
"+X+X# 2 5 7 u 7 C.).I.M.-.0 2 ; V.'.K.m.$.> < = & & > = # +X+X+X",
"+X+XO & 5 5 y t <.).Y.b.M r l s C.'.L.,.^ f { G g d d 3 $ +X+X+X",
"+X+X+Xy p.a.a...S _.(.>.c G s. .q.'.J.,.^ Y u.+...U F e +X+X+X+X",
"+X+X+X8 X...} l 9.[.L.,.M a X.H 0.(.m.>.B d  .+...U J d +X+X+X+X",
"+X+X+X2 { [ [ g 5.j.~ ~ / v  .H 5.-.~ / N d } ..Y Y ..g +X+X+X+X",
"+X+X+X2 }  . .{ h y e e a F +. .F i y r a F | L L Y  .p +X+X+X+X",
"+X+X+X2 X.p.p.p...} } } ..@.a.u.X...Y  . ..... .U  .J e +X+X+X+X",
"+X+X+X< O.d.s.p.@. . . .O.O.+.+.+.X.O.O.O... . .....F 3 +X+X+X+X",
"+X+X+X$ H X.a.s.p. . . . .L } } } J } { H F [ [ G F e - +X+X+X+X",
"+X+X+X# 9 g [  .O. .| } { [ l l h h g p p y e e y e 2 # +X+X+X+X",
"+X+X+X+X& 2 5 6 t y p p t t e 9 7 6 6 5 2 1 1 < < - % +X+X+X+X+X",
"+X+X+X+X+X+ o o + + + + + + + $ +X+X+X+X+X+X+X+X+X@ +X+X+X+X+X+X",
"+X+X+X+X+X+X+X.     X X +X+X+X+X+X+X+X+X+X+X+X+X+X+X+X+X+X+X+X+X"
};
